<svg xmlns="http://www.w3.org/2000/svg" xmlns:xlink="http://www.w3.org/1999/xlink" viewBox="0 0 642.37 251.53"><defs><style>.cls-1{fill:#64d0ff;}.cls-2{fill:#104fff;}.cls-3{fill:#1212ff;}.cls-4{fill:url(#linear-gradient);}.cls-5{fill:url(#linear-gradient-2);}.cls-6{fill:url(#linear-gradient-3);}.cls-7{fill:url(#linear-gradient-4);}</style><linearGradient id="linear-gradient" x1="287.94" y1="118.23" x2="343.33" y2="118.23" gradientUnits="userSpaceOnUse"><stop offset="0" stop-color="#104fff"></stop><stop offset="0.5" stop-color="#64d0ff"></stop></linearGradient><linearGradient id="linear-gradient-2" x1="287.85" y1="129.53" x2="342.35" y2="129.53" gradientUnits="userSpaceOnUse"><stop offset="0" stop-color="#1212ff"></stop><stop offset="0.5" stop-color="#109bff"></stop></linearGradient><linearGradient id="linear-gradient-3" x1="287.94" y1="27.43" x2="343.34" y2="27.43" gradientUnits="userSpaceOnUse"><stop offset="0.5" stop-color="#64d0ff"></stop><stop offset="1" stop-color="#3e86ef"></stop></linearGradient><linearGradient id="linear-gradient-4" x1="276.81" y1="-0.04" x2="361.52" y2="48.15" gradientUnits="userSpaceOnUse"><stop offset="0.33" stop-color="#64d0ff"></stop><stop offset="1" stop-color="#1212ff"></stop></linearGradient></defs><g id="Layer_1" data-name="Layer 1"><path d="M63.3,250.3H80.8L48.58,178.24H32.11L0,250.3H17.09l6.42-15.44h33.4ZM28.77,222.2l11.47-27.58L51.66,222.2Z"></path><path d="M118.89,251.53q-15.35,0-24-8.54t-8.64-24.4V178.24h16.67V218q0,10.29,4.22,14.82T119,237.33q7.62,0,11.84-4.53T135.05,218V178.24h16.47v40.35q0,15.85-8.65,24.4T118.89,251.53Z"></path><path d="M231.13,250.3,215,227.2l.14-.06A24.21,24.21,0,0,0,226,218.23a24.67,24.67,0,0,0,3.81-13.84,25.14,25.14,0,0,0-3.81-14,24.47,24.47,0,0,0-10.81-9,40.6,40.6,0,0,0-16.68-3.14H167.32V250.3H184V230.23H198.5l.78,0,13.84,20.09Zm-22-55.17c2.53,2.19,3.81,5.28,3.81,9.26a11.65,11.65,0,0,1-3.81,9.21q-3.81,3.35-11.53,3.35H184V191.83h13.59Q205.29,191.83,209.11,195.13Z"></path><path d="M276.81,251.53a43.65,43.65,0,0,1-15.8-2.78,37.42,37.42,0,0,1-12.56-7.82,35.64,35.64,0,0,1-8.23-11.84,38.82,38.82,0,0,1,0-29.64,35.2,35.2,0,0,1,8.28-11.84,38.13,38.13,0,0,1,12.56-7.82,45.55,45.55,0,0,1,31.34,0,37.68,37.68,0,0,1,12.46,7.82,37.64,37.64,0,0,1,8.29,41.54A35.77,35.77,0,0,1,304.86,241a38,38,0,0,1-12.46,7.77A42.52,42.52,0,0,1,276.81,251.53Zm-.1-14.2a23.46,23.46,0,0,0,8.9-1.65,21.4,21.4,0,0,0,7.15-4.73,21.63,21.63,0,0,0,4.79-7.31,26.67,26.67,0,0,0,0-18.74,22.05,22.05,0,0,0-4.73-7.3,20.74,20.74,0,0,0-7.16-4.74,23.83,23.83,0,0,0-9-1.65,23.47,23.47,0,0,0-8.91,1.65,21.38,21.38,0,0,0-7.15,4.74,21.74,21.74,0,0,0-4.79,7.3,26.53,26.53,0,0,0,0,18.69A21.94,21.94,0,0,0,260.6,231a20.82,20.82,0,0,0,7.15,4.73A23.88,23.88,0,0,0,276.71,237.33Z"></path><polygon points="376.94 178.25 376.94 221.96 341.12 178.25 327.32 178.25 327.32 250.3 343.79 250.3 343.79 206.57 379.72 250.3 393.41 250.3 393.41 178.25 376.94 178.25"></polygon><path d="M444.67,251.53a43.62,43.62,0,0,1-15.8-2.78,37.32,37.32,0,0,1-12.56-7.82,35.66,35.66,0,0,1-8.24-11.84,38.94,38.94,0,0,1,0-29.64,35.37,35.37,0,0,1,8.29-11.84,38,38,0,0,1,12.56-7.82,45.55,45.55,0,0,1,31.34,0,37.68,37.68,0,0,1,12.46,7.82A36,36,0,0,1,484,214.27a36.87,36.87,0,0,1-3,14.88A35.6,35.6,0,0,1,472.72,241a38,38,0,0,1-12.46,7.77A42.56,42.56,0,0,1,444.67,251.53Zm-.11-14.2a23.47,23.47,0,0,0,8.91-1.65,21.45,21.45,0,0,0,11.94-12,26.67,26.67,0,0,0,0-18.74,21.92,21.92,0,0,0-4.74-7.3,20.7,20.7,0,0,0-7.15-4.74,23.88,23.88,0,0,0-9-1.65,23.46,23.46,0,0,0-8.9,1.65,21.28,21.28,0,0,0-7.15,4.74,21.59,21.59,0,0,0-4.79,7.3,26.53,26.53,0,0,0,0,18.69,21.79,21.79,0,0,0,4.74,7.36,20.72,20.72,0,0,0,7.15,4.73A23.83,23.83,0,0,0,444.56,237.33Z"></path><polygon points="547.98 178.25 525.73 229.71 503.82 178.25 485.81 178.25 516.89 250.3 533.36 250.3 564.55 178.25 547.98 178.25"></polygon><path d="M624.87,250h17.5L610.16,178H593.69L561.57,250h17.09l6.42-15.44h33.4Zm-34.53-28.11,11.47-27.57,11.42,27.57Z"></path><polygon class="cls-1" points="288.13 17.18 249.63 40.4 249.63 107.6 288.13 130.82 288.13 17.18"></polygon><polygon class="cls-1" points="345.12 17.18 345.12 130.82 383.63 107.6 383.63 40.4 345.12 17.18"></polygon><polygon class="cls-2" points="288.13 64.69 249.63 40.4 249.63 107.6 288.13 130.82 288.13 64.69"></polygon><polygon class="cls-3" points="288.13 82.77 249.63 60.41 249.63 107.6 288.13 82.77"></polygon><polygon class="cls-2" points="345.12 64.69 383.63 40.4 383.63 107.6 345.12 130.82 345.12 64.69"></polygon><polygon class="cls-3" points="345.12 82.77 383.63 60.41 383.63 107.6 345.12 82.77"></polygon><polygon class="cls-4" points="296.19 88.47 316.63 100.79 337.06 88.47 337.06 135.68 316.63 148 296.19 135.68 296.19 88.47"></polygon><polygon class="cls-5" points="296.19 111.05 316.63 123.38 337.06 111.05 337.06 135.68 316.63 148 296.19 135.68 296.19 111.05"></polygon><polygon class="cls-6" points="337.06 54.85 316.63 42.53 296.19 54.85 296.19 12.32 316.63 0 337.06 12.32 337.06 54.85"></polygon><polygon class="cls-7" points="337.06 33.59 316.63 21.27 296.19 33.59 296.19 12.32 316.63 0 337.06 12.32 337.06 33.59"></polygon></g></svg>