<svg xmlns="http://www.w3.org/2000/svg" width="1009" height="188" fill="none" xmlns:v="https://vecta.io/nano"><g fill-rule="evenodd"><path d="M356.69 49.04c-6.16 0-11.52 1.5-16.05 4.5s-7.58 6.99-9.14 11.97h-.87c-1.13-5.02-3.75-9.01-7.89-11.99s-9.11-4.47-14.91-4.47-10.66 1.47-14.79 4.42c-4.14 2.94-7.07 6.96-8.81 12.05h-.93V50.14H258v83.74h26.61V84.32c0-2.76.5-5.16 1.5-7.2 1-2.03 2.38-3.61 4.16-4.71 1.78-1.11 3.83-1.66 6.15-1.66 3.45 0 6.22 1.12 8.33 3.38 2.1 2.25 3.15 5.32 3.15 9.22v50.54h25.57V83.9c0-4 1.04-7.19 3.13-9.57s4.96-3.57 8.62-3.57c3.41 0 6.18 1.1 8.33 3.3 2.14 2.19 3.21 5.39 3.21 9.56v50.27h26.61V77.52c0-8.83-2.46-15.79-7.4-20.85-4.93-5.07-11.35-7.61-19.26-7.61m62.43 33.89c.14-2.69.81-5.13 2.11-7.27a15.12 15.12 0 0 1 5.6-5.4c2.36-1.33 5.03-1.99 8-1.99s5.54.63 7.8 1.88c2.27 1.25 4.06 2.99 5.36 5.21s1.97 4.74 2.01 7.58h-30.9l.02-.01zm44.28-22.9c-3.59-3.63-7.86-6.38-12.79-8.24-4.93-1.85-10.37-2.78-16.32-2.78-8.41 0-15.73 1.81-21.93 5.42-6.2 3.62-11 8.67-14.42 15.16-3.41 6.48-5.11 14.06-5.11 22.71s1.69 16.58 5.08 23.03 8.25 11.41 14.58 14.89c6.33 3.47 13.87 5.2 22.6 5.2 7.3 0 13.71-1.12 19.26-3.35 5.55-2.24 10.04-5.38 13.46-9.43 3.43-4.05 5.65-8.82 6.67-14.31l-24.43-.71c-.69 1.85-1.72 3.42-3.1 4.69s-3.03 2.24-4.95 2.89c-1.92.66-4.07.98-6.42.98-3.41 0-6.35-.71-8.81-2.12-2.47-1.42-4.38-3.41-5.71-5.97-1.34-2.56-2.01-5.55-2.01-8.97v-.71h55.72v-6.65c0-6.87-1-12.96-2.99-18.29-2-5.32-4.79-9.8-8.38-13.44zm21.19 73.82h26.61V22.21h-26.61v111.66zm86.76-29.77c0 2.73-.68 5.12-2.07 7.17-1.38 2.05-3.22 3.66-5.52 4.82s-4.89 1.75-7.75 1.75c-3.05 0-5.56-.73-7.54-2.18s-2.96-3.56-2.96-6.33c0-1.82.46-3.39 1.38-4.71.92-1.33 2.27-2.41 4.03-3.25 1.75-.83 3.89-1.45 6.39-1.85l3.86-.6c1.34-.22 2.65-.47 3.92-.76a47.48 47.48 0 0 0 3.51-.93c1.07-.33 1.98-.69 2.74-1.09v7.96h.01zm15.88-47.73c-3.33-2.38-7.25-4.2-11.75-5.45-4.5-1.26-9.41-1.88-14.74-1.88-7.48 0-13.87 1.16-19.18 3.46-5.31 2.31-9.49 5.47-12.51 9.49-3.03 4.01-4.91 8.57-5.63 13.65l24.54.88c.58-2.69 1.94-4.8 4.08-6.33s4.97-2.29 8.49-2.29c3.26 0 5.85.76 7.78 2.29 1.92 1.53 2.88 3.69 2.88 6.49v.27c0 1.71-.66 3.03-1.99 3.95-1.32.93-3.43 1.64-6.34 2.13-2.9.49-6.73.95-11.48 1.39-4.24.36-8.23 1.06-11.97 2.1s-7.03 2.56-9.9 4.55c-2.87 2-5.12 4.6-6.75 7.8-1.64 3.2-2.45 7.13-2.45 11.78 0 5.53 1.19 10.11 3.56 13.77 2.37 3.65 5.62 6.38 9.74 8.18 4.11 1.8 8.84 2.7 14.17 2.7 3.88 0 7.37-.49 10.48-1.47 3.1-.98 5.8-2.45 8.11-4.41 2.3-1.96 4.2-4.36 5.68-7.2h.65v11.67h25.03V76.97c0-4.43-.92-8.38-2.75-11.83s-4.41-6.37-7.76-8.75l.01-.02zm77.87 47.4c-1.18 3.34-2.91 5.93-5.2 7.77-2.28 1.83-5.06 2.75-8.33 2.75s-5.99-.92-8.3-2.75c-2.31-1.84-4.06-4.43-5.28-7.77s-1.82-7.27-1.82-11.78.6-8.52 1.82-11.83 2.97-5.85 5.25-7.63 5.06-2.67 8.32-2.67 6.09.91 8.35 2.73 3.99 4.38 5.17 7.69 1.77 7.22 1.77 11.72-.59 8.43-1.77 11.78m12.15-50.16c-5.06-3.05-10.49-4.58-16.29-4.58-4.38 0-8.15.75-11.29 2.26s-5.71 3.45-7.73 5.81c-2.01 2.36-3.56 4.81-4.65 7.36h-.82V50.13h-26.33v115.14h26.61v-44.98h.55c1.12 2.58 2.73 5 4.82 7.26 2.08 2.25 4.67 4.07 7.75 5.45s6.73 2.07 10.94 2.07c6.16 0 11.78-1.6 16.84-4.8s9.09-7.99 12.08-14.39 4.49-14.34 4.49-23.83-1.56-17.95-4.68-24.31c-3.12-6.37-7.21-11.07-12.27-14.12m121.68-4.58c5.95 0 11.39.93 16.32 2.78 4.93 1.86 9.2 4.6 12.79 8.24 3.59 3.63 6.38 8.12 8.38 13.44 1.99 5.33 2.99 11.42 2.99 18.29v6.65h-55.72v.71c0 3.42.67 6.41 2.01 8.97s3.24 4.55 5.71 5.97c2.46 1.41 5.4 2.12 8.81 2.12 2.35 0 4.5-.33 6.42-.98s3.57-1.61 4.95-2.89c1.38-1.27 2.41-2.84 3.1-4.69l24.43.71c-1.02 5.49-3.24 10.25-6.67 14.31-3.43 4.05-7.92 7.2-13.46 9.43-5.55 2.24-11.97 3.35-19.26 3.35-8.74 0-16.27-1.73-22.6-5.2s-11.19-8.44-14.58-14.89-5.08-14.13-5.08-23.03 1.7-16.22 5.11-22.71 8.22-11.54 14.42-15.16c6.21-3.61 13.52-5.42 21.93-5.42zm-48.4-.06a31.43 31.43 0 0 1 3.81.24c1.3.16 2.52.41 3.65.74v23.17c-1.27-.44-2.93-.78-4.98-1.04-2.05-.25-3.88-.38-5.47-.38-3.16 0-5.99.7-8.52 2.1a15.31 15.31 0 0 0-5.93 5.83c-1.44 2.49-2.15 5.4-2.15 8.75v45.47h-26.61V50.12h25.84v15.27h.87c1.52-5.53 4.01-9.64 7.46-12.35 3.44-2.71 7.45-4.06 12.02-4.06h.01zm48.95 19.3c-2.97 0-5.64.66-8 1.99a15.12 15.12 0 0 0-5.6 5.4c-1.31 2.15-1.98 4.59-2.11 7.27h30.9c-.04-2.84-.71-5.36-2.01-7.58a13.97 13.97 0 0 0-5.36-5.21c-2.27-1.26-4.87-1.88-7.8-1.88l-.02.01zm99.98 16.09l-16.11-3.06c-3.51-.73-5.96-1.69-7.32-2.89s-2.02-2.62-1.99-4.25c-.03-2.11 1.03-3.78 3.18-5.02 2.16-1.24 4.78-1.85 7.86-1.85 2.36 0 4.44.39 6.23 1.17 1.8.78 3.25 1.86 4.38 3.21 1.12 1.36 1.81 2.92 2.07 4.66l24.43-.65c-.69-8.29-4.3-14.8-10.82-19.55-6.53-4.74-15.46-7.11-26.77-7.11-7.55 0-14.09 1.05-19.64 3.16s-9.83 5.15-12.84 9.13-4.5 8.77-4.46 14.37c-.04 6.4 1.99 11.66 6.09 15.78 4.1 4.13 10.34 6.95 18.72 8.48l14.58 2.78c3.48.65 6.04 1.55 7.67 2.7 1.64 1.15 2.47 2.66 2.51 4.55-.04 2.11-1.12 3.8-3.27 5.07-2.14 1.27-4.92 1.91-8.32 1.91-3.78 0-6.88-.8-9.31-2.4s-3.93-3.92-4.52-6.98l-26.28.65c.98 8.29 4.9 14.89 11.78 19.82s16.28 7.39 28.21 7.39c7.47 0 14.11-1.17 19.91-3.52 5.8-2.34 10.38-5.64 13.74-9.89 3.35-4.26 5.05-9.25 5.09-15-.04-6.1-2.1-11.01-6.17-14.72-4.09-3.71-10.29-6.36-18.64-7.96m102.9 7.98c-4.08-3.71-10.29-6.36-18.64-7.96l-16.11-3.05c-3.51-.73-5.95-1.69-7.32-2.89-1.36-1.2-2.02-2.62-1.98-4.25-.04-2.1 1.02-3.78 3.18-5.02 2.16-1.23 4.78-1.85 7.86-1.85 2.36 0 4.43.39 6.23 1.17 1.79.78 3.25 1.85 4.38 3.21 1.12 1.36 1.82 2.91 2.07 4.66l24.43-.65c-.69-8.29-4.3-14.8-10.82-19.55-6.53-4.74-15.46-7.11-26.77-7.11-7.54 0-14.09 1.05-19.64 3.16s-9.83 5.15-12.84 9.13-4.5 8.77-4.46 14.36c-.04 6.4 1.99 11.66 6.1 15.79 4.1 4.13 10.34 6.95 18.71 8.48l14.58 2.78c3.48.65 6.04 1.55 7.67 2.7 1.64 1.15 2.47 2.66 2.51 4.55-.04 2.11-1.12 3.8-3.26 5.07s-4.92 1.91-8.32 1.91c-3.78 0-6.88-.8-9.31-2.4s-3.93-3.92-4.52-6.98l-26.28.65c.98 8.29 4.9 14.89 11.78 19.82 6.87 4.93 16.28 7.39 28.21 7.39 7.48 0 14.11-1.17 19.91-3.52 5.8-2.34 10.38-5.64 13.74-9.89 3.35-4.25 5.05-9.25 5.09-14.99-.04-6.11-2.1-11.02-6.17-14.72" fill="#020e26"/><path d="M0 41.09L93.29.45l93.3 40.64v105.3l-93.3 40.64L0 146.39V41.09z" fill="#ff8977"/></g><path d="M81.12 135.3c-1.36-.83-1.31-1.9-1.47-3.28-1.41-11.99 3.23-28.35 1.02-40.01-.45-2.37-.3-5.61-.54-6.65-.97-4.08-1.55-7.07-6.13-10.43-6.76-2.85-10.56 3.55-15.23 6.85-.7 9.42.4 18.85 0 28.31-.18 4.18-.52 10.18-.95 14.26-.46 4.31-.89 12.79-6.19 13.77-1.97.36-10.12.97-12.34.97-1.29 0-7.14-1.08-7.68-1.83l-1.37-87.05c1.02-5.81 13.93-3.45 17.6-3.34 2.12.06 9.92-.96 10.49-.03l-.51 20c2.2.56 1.57-.42 2.18-1.19 1.58-2.02 2.76-4.85 4.5-6.85 5.2-5.98 16.73-10.88 24.55-8.42.51.16 8.57 4.58 9.24 5.02 1.62 1.07 7.13 8.22 7.09 10.51 5.93-2.26 9.41-8.03 14.92-11.22 9.15-5.3 21.6-5.33 28.28 3.67 9.44 12.71 7.95 27.47 7.2 42.25-.5 9.89.44 23.44-1.34 33.12-2.1 11.47-4.85 6.58-12.58 5.5-2.57-.36-9.25.64-10.4-1.01-2.23-19.2 3.21-39.61-4.52-57.75-4-2.73-8.76-4.18-12.57-.33-9.46 9.56-7.42 31.24-7.14 44.27.04 1.99 2.54 10.89-1.39 10.89H81.11h.01z" fill="#fff"/></svg>